<svg width="117" height="41" viewBox="0 0 117 41" fill="none" xmlns="http://www.w3.org/2000/svg">
<mask id="mask0_101_1699" style="mask-type:luminance" maskUnits="userSpaceOnUse" x="0" y="0" width="117" height="41">
<path d="M116.526 0H0V41H116.526V0Z" fill="white"/>
</mask>
<g mask="url(#mask0_101_1699)">
<path fill-rule="evenodd" clip-rule="evenodd" d="M7.41237 20.5052C7.41237 13.5124 12.8971 7.79484 19.8144 7.40407V0C8.80421 0.40106 0 9.41961 0 20.5052C0 31.57 8.80421 40.5989 19.8144 41V33.6061C12.8971 33.2155 7.41237 27.4977 7.41237 20.5052Z" fill="#6180DD"/>
<path fill-rule="evenodd" clip-rule="evenodd" d="M19.196 22.3869C20.2374 22.3869 21.0928 21.5437 21.0928 20.4947C21.0928 19.4561 20.2476 18.6025 19.196 18.6025C18.1547 18.6025 17.299 19.446 17.299 20.4947C17.299 21.5437 18.1547 22.3869 19.196 22.3869Z" fill="#ED6B67"/>
<path fill-rule="evenodd" clip-rule="evenodd" d="M35.5669 30.0173L32.9278 22.4798C33.0206 21.8318 33.072 21.1737 33.072 20.5053C33.072 13.204 27.1341 7.28076 19.8142 7.28076C19.8041 7.28076 19.8041 7.28076 19.8041 7.28076V11.7952H19.8142C24.639 11.7952 28.5463 15.6926 28.5463 20.5053C28.5463 25.3076 24.639 29.2152 19.8142 29.2152C19.8041 29.2152 19.8041 29.2152 19.8041 29.2152V33.7298H19.8142C23.3917 33.7298 26.639 32.3207 29.0207 30.0173H35.5669Z" fill="#FEB000"/>
<path d="M41.7013 19.9496C41.7013 16.9263 42.5879 14.4789 44.3506 12.5867C46.1241 10.6946 48.5054 9.75879 51.5157 9.75879C54.5053 9.75879 56.8867 10.6946 58.6602 12.5662C60.4334 14.4378 61.3095 16.8749 61.3095 19.8673C61.3095 23.1889 60.3612 25.8113 58.4746 27.7343C59.6806 29.2458 60.3508 30.0686 60.4642 30.2023C59.6704 30.953 58.6395 31.683 57.3713 32.3824C56.99 31.9092 56.2785 31.0146 55.2375 29.6882C54.1548 30.1404 52.9177 30.3667 51.5157 30.3667C48.3507 30.3667 45.928 29.4002 44.2374 27.4772C42.5466 25.5542 41.7013 23.0449 41.7013 19.9496ZM45.7011 20.2273C45.7011 22.2635 46.1962 23.95 47.1962 25.2663C48.1858 26.5928 49.6291 27.251 51.5259 27.251C53.361 27.251 54.7837 26.5823 55.7942 25.2558C56.8044 23.9293 57.3097 22.2225 57.3097 20.145C57.3097 17.8826 56.7837 16.1037 55.7529 14.8183C54.7116 13.5328 53.2682 12.8952 51.4331 12.8952C49.6186 12.8952 48.2064 13.5534 47.2064 14.8799C46.2064 16.1962 45.7011 17.9856 45.7011 20.2273Z" fill="#0D141E"/>
<path d="M63.4537 23.5695C63.3921 21.1736 63.3921 18.5 63.4537 15.5588C64.66 15.4663 65.9177 15.4663 67.1961 15.5588V23.4052C67.2581 25.8935 68.3198 27.138 70.4021 27.138C71.7838 27.138 72.9589 26.5209 73.9177 25.2973C73.9177 24.6185 73.9075 23.1376 73.8868 20.865C73.8662 18.5924 73.8662 16.8237 73.8868 15.5588C74.4537 15.4971 75.0826 15.4766 75.7633 15.4766C76.4643 15.4766 77.0827 15.5074 77.6394 15.5588C77.7115 20.9575 77.7322 25.76 77.7014 29.9763C76.4744 30.0687 75.2475 30.0687 74.0416 29.9763C74.0416 29.4106 74.0209 28.8039 73.9796 28.1664C73.5261 28.8039 72.9074 29.3283 72.1238 29.7192C71.3405 30.1202 70.4746 30.3157 69.526 30.3157C67.5981 30.3157 66.1135 29.7293 65.0724 28.557C64.0311 27.3846 63.495 25.7187 63.4537 23.5695Z" fill="#0D141E"/>
<path d="M83.7838 12.9981C83.392 13.3477 82.8868 13.5225 82.2684 13.5225C81.6497 13.5225 81.1343 13.3477 80.7529 13.0084C80.3611 12.669 80.1755 12.1754 80.1755 11.5378C80.1755 10.9106 80.3713 10.4375 80.7529 10.0981C81.1444 9.7588 81.6497 9.58398 82.2684 9.58398C82.8868 9.58398 83.4022 9.7588 83.7838 10.0981C84.1757 10.4375 84.3609 10.9208 84.3609 11.5378C84.3609 12.1548 84.1652 12.6484 83.7838 12.9981ZM80.2785 15.5895C80.8457 15.5278 81.4848 15.5073 82.2064 15.5073C82.9487 15.5073 83.5878 15.5381 84.1344 15.5895C84.1757 19.6102 84.1239 24.4026 83.9901 29.9761C83.4642 30.0377 82.8661 30.0584 82.2064 30.0584C81.5467 30.0584 80.9487 30.0276 80.4231 29.9761C80.3198 22.4176 80.2785 17.6255 80.2785 15.5895Z" fill="#0D141E"/>
<path d="M87.1548 29.9658C87.062 22.5618 87.0105 15.4869 87.0105 8.73071C87.5364 8.669 88.1859 8.64844 88.9384 8.64844C89.6807 8.64844 90.3198 8.6793 90.8663 8.73071C90.8663 14.5614 90.8457 18.8804 90.8044 21.6672C92.1136 20.8959 93.2684 19.9603 94.2786 18.8598C95.2891 17.7697 96.0623 16.6695 96.5879 15.5795C97.1551 15.5178 97.8249 15.4972 98.6086 15.4972C99.4952 15.4972 100.248 15.5281 100.856 15.5795C100.444 16.6901 99.7529 17.8006 98.7941 18.9113C97.8354 20.0115 96.8147 20.9782 95.7117 21.7803C98.2994 24.0837 100.031 26.8088 100.908 29.9658C100.299 30.0278 99.5879 30.0482 98.7735 30.0482C98.0312 30.0482 97.4128 30.0173 96.8974 29.9658C96.5364 28.8863 96.0003 27.7448 95.2786 26.5209C94.557 25.3076 93.7736 24.3615 92.9179 23.7033C92.3097 24.0427 91.588 24.3717 90.7631 24.6907C90.7221 26.5416 90.7014 28.3 90.7014 29.9557C90.1549 30.0173 89.5571 30.038 88.9178 30.038C88.3096 30.0586 87.7115 30.0278 87.1548 29.9658Z" fill="#0D141E"/>
<path d="M102.361 25.585C102.361 24.0218 102.97 22.8186 104.176 21.9857C105.382 21.1527 107.001 20.7415 109.001 20.7415C110.001 20.7415 111.32 20.8854 112.949 21.1632C112.929 20.1243 112.66 19.3533 112.124 18.8595C111.599 18.3558 110.64 18.1088 109.258 18.1088C107.722 18.1088 106.114 18.5099 104.434 19.3019C103.918 18.6643 103.444 17.8517 102.99 16.8646C104.898 15.7746 107.114 15.2192 109.63 15.2192C110.578 15.2192 111.444 15.3118 112.228 15.5072C113.011 15.6923 113.743 16.0008 114.423 16.4121C115.104 16.8235 115.63 17.4199 116.001 18.1912C116.372 18.9624 116.547 19.8879 116.526 20.9677C116.526 23.9086 116.444 26.9115 116.269 29.976C115.073 30.0685 113.887 30.0685 112.691 29.976C112.753 28.9785 112.784 28.197 112.805 27.652C111.784 29.431 110.135 30.3154 107.867 30.3154C106.217 30.3154 104.887 29.9039 103.877 29.0814C102.867 28.2587 102.361 27.0965 102.361 25.585ZM105.856 25.6054C105.856 26.9833 106.826 27.6723 108.753 27.6723C109.794 27.6723 110.712 27.2817 111.516 26.5003C112.32 25.7185 112.784 24.7521 112.918 23.6004C111.784 23.4151 110.63 23.3125 109.454 23.3125C108.341 23.3125 107.454 23.5076 106.815 23.9086C106.176 24.3097 105.856 24.8754 105.856 25.6054Z" fill="#0D141E"/>
</g>
</svg>
