<svg width="194" height="99" viewBox="0 0 194 99" fill="none" xmlns="http://www.w3.org/2000/svg">
<path fill-rule="evenodd" clip-rule="evenodd" d="M144.345 12.3957C153.556 13.4942 160.64 17.1235 167.693 21.1213C190.821 34.2468 197.399 52.0904 179.449 67.5243C151.542 91.4526 90.3057 103.416 44.642 91.5347C34.5284 88.9119 20.7654 86.183 11.312 76.8106C2.51778 68.0958 3.72051 58.7385 8.81072 50.4177C13.9988 41.8836 23.2311 34.4127 30.4745 29.723C62.1388 9.26701 123.386 -6.53117 176.202 9.11956C177.289 9.42708 178.426 9.15687 178.799 8.52102C179.171 7.88517 178.679 7.12663 177.671 6.8259C123.305 -9.28209 60.1237 6.80214 27.5332 27.854C18.5199 33.7034 6.52321 43.7302 2.38805 54.8166C-0.411452 62.3962 0.405523 70.4607 8.02226 78.0703C18.0596 88.0511 32.6706 91.0938 43.4061 93.884C90.5475 106.154 153.879 93.8668 182.649 69.1492C201.971 52.563 195.032 33.378 170.159 19.2687C162.578 14.9373 154.797 11.0883 144.799 9.89667C143.696 9.76575 142.703 10.2196 142.644 10.9149C142.505 11.6035 143.322 12.2716 144.345 12.3957Z" fill="#B0C0EE"/>
</svg>
