<svg width="44" height="43" viewBox="0 0 44 43" fill="none" xmlns="http://www.w3.org/2000/svg">
<path fill-rule="evenodd" clip-rule="evenodd" d="M3.92103 22.5669C5.28757 17.0106 5.19808 11.6599 5.36185 6.02398C5.39368 4.92333 4.52906 4.00827 3.43172 3.97511C2.33372 3.94196 1.41736 4.81058 1.38487 5.91124C1.22972 11.2554 1.35505 16.3409 0.0581333 21.6187C-0.204433 22.6863 0.448681 23.767 1.51486 24.0256C2.58037 24.2908 3.65913 23.6344 3.92103 22.5669Z" fill="#6180DD"/>
<path fill-rule="evenodd" clip-rule="evenodd" d="M15.5312 33.3348C24.8019 24.8611 33.5368 13.9606 39.6422 2.95407C40.1746 1.99265 39.8278 0.779224 38.8677 0.248787C37.9076 -0.281647 36.6956 0.0631634 36.1631 1.02458C30.2594 11.6665 21.8115 22.2089 12.8472 30.3975C12.0369 31.1401 11.9806 32.3999 12.7212 33.2088C13.4618 34.0178 14.7209 34.0774 15.5312 33.3348Z" fill="#6180DD"/>
<path fill-rule="evenodd" clip-rule="evenodd" d="M17.8795 42.591C26.3586 43.9901 35.0981 41.6031 42.808 38.2282C43.8139 37.784 44.2727 36.6104 43.8331 35.6092C43.3929 34.6014 42.2186 34.1439 41.2128 34.5815C34.1911 37.658 26.2498 39.9389 18.5273 38.6659C17.4439 38.4868 16.4195 39.2228 16.2411 40.3036C16.0621 41.3843 16.7968 42.412 17.8795 42.591Z" fill="#6180DD"/>
</svg>
